<?xml version="1.0" encoding="utf-8"?>
<!-- Generator: Adobe Illustrator 23.0.2, SVG Export Plug-In . SVG Version: 6.00 Build 0)  -->
<svg version="1.1" id="Layer_1" xmlns="http://www.w3.org/2000/svg" xmlns:xlink="http://www.w3.org/1999/xlink" x="0px" y="0px"
	 viewBox="0 0 40 40" style="enable-background:new 0 0 40 40;" xml:space="preserve">
<style type="text/css">
	.st0{fill:#000000;}
</style>
<g id="guides">
</g>
<g id="Layer_2">
</g>
<g>
	<g>
	</g>
	<g>
		<g>
			<path class="st0" d="M28.6,16c0,1.1,0.9,2,2,2c1.1,0,2-0.9,2-2c0-1.1-0.9-2-2-2C29.5,14,28.6,14.9,28.6,16z M29.3,16
				c0-0.7,0.6-1.3,1.3-1.3s1.3,0.6,1.3,1.3c0,0.7-0.6,1.2-1.2,1.3C29.9,17.2,29.4,16.7,29.3,16z"/>
			<path class="st0" d="M13.4,16c0,1.1,0.9,2,2,2c1.1,0,2-0.9,2-2c0-1.1-0.9-2-2-2C14.3,14,13.4,14.9,13.4,16z M14.2,16
				c0-0.7,0.6-1.3,1.3-1.3s1.3,0.6,1.3,1.3c0,0.7-0.6,1.2-1.2,1.3C14.7,17.2,14.2,16.7,14.2,16z"/>
			<path class="st0" d="M13,12.3h-2v2.1c0,0.1,0,0.2,0.1,0.3l0.8,0.8c0.2-1.7,1.7-3,3.5-3c1.9,0,3.5,1.6,3.5,3.5c0,0.1,0,0.3,0,0.4
				h8.3c0-0.1,0-0.3,0-0.4c0-1.9,1.6-3.5,3.5-3.5s3.5,1.6,3.5,3.5c0,0.1,0,0.3,0,0.4h0.5c0.2,0,0.4-0.2,0.4-0.4v-2.2
				c0-1-0.6-2-1.5-2.5c0,0,0,0,0,0l-2.5-1L30.4,10l-0.8-0.6c-1.2-1-2.4-1.8-3.8-2.3c-2.4-0.9-5-1.2-7.6-1l-3.9,0.4l-2.2,0.2
				c0,0-0.1,0-0.1,0c-0.2,0.1-0.3,0.3-0.2,0.5l0.7,1.4l-1.4,1.8C11,10.6,11,10.7,11,10.8h2V12.3z M22,11.7h2v0.8h-2V11.7z M22,10.5
				l-0.9-3.6c1.5,0.1,3,0.4,4.4,1c1.3,0.5,2.5,1.3,3.6,2.2l1.1,1L22,10.5z M15,7.2l3.3-0.3c0.6-0.1,1.1-0.1,1.7-0.1
				c0.1,0,0.2,0,0.3,0l0.9,3.7l-4.8-0.4L15,7.2z"/>
		</g>
		<g>
			<path class="st0" d="M5,31c0,1.7,1.3,3,3,3c1.7,0,3-1.3,3-3s-1.3-3-3-3C6.3,28,5,29.3,5,31z M5.8,31c0-1.2,1-2.3,2.3-2.3
				s2.3,1,2.3,2.3s-1,2.3-2.3,2.3S5.8,32.2,5.8,31z"/>
			<path class="st0" d="M13.2,28.3l-1.3,3.2h7.2l2.1-5h0.6l0.8,1.9C21.6,28.9,21,29.9,21,31c0,1.7,1.3,3,3,3c1.7,0,3-1.3,3-3
				s-1.3-3-3-3c-0.3,0-0.5,0.1-0.8,0.1l-0.7-1.6h1.4c0.7,0,1.2-0.2,1.3-0.8c0-0.6-0.5-1.3-1-1.6c-1.5-1.1-3.9-2.4-3.6-2
				c2.4,3.2-0.1,2.2-0.1,2.2c-5-3.1-6.2,1.4-6.2,1.4l-3.6-0.6l-0.5-1.5c0,0-1.8-0.7-4.4,0.2C2.7,24.9,13.2,28.3,13.2,28.3z
				 M22.8,29.1l0.9,2l0.7-0.3l-0.9-2c0.2,0,0.3-0.1,0.5-0.1c1.2,0,2.3,1,2.3,2.3s-1,2.3-2.3,2.3s-2.3-1-2.3-2.3
				C21.8,30.2,22.2,29.5,22.8,29.1z M16.6,30.7l1.4-3.5h1.6l-1.4,3.5H16.6z"/>
		</g>
	</g>
</g>
</svg>
