<?xml version="1.0" encoding="utf-8"?>
<!-- Generator: Adobe Illustrator 23.0.2, SVG Export Plug-In . SVG Version: 6.00 Build 0)  -->
<svg version="1.1" id="Layer_1" xmlns="http://www.w3.org/2000/svg" xmlns:xlink="http://www.w3.org/1999/xlink" x="0px" y="0px"
	 viewBox="0 0 40 40" style="enable-background:new 0 0 40 40;" xml:space="preserve">
<style type="text/css">
	.st0{fill:none;}
	.st1{fill:#000000;}
</style>
<g id="guides">
</g>
<g id="Layer_2">
</g>
<g>
	<g>
		<rect class="st0" width="40" height="40"/>
	</g>
	<g>
		<path class="st1" d="M10.5,5c-1.7,0-3,1.3-3,3c0,1.7,1.3,3,3,3c1.7,0,3-1.3,3-3C13.5,6.3,12.2,5,10.5,5L10.5,5z"/>
		<path class="st1" d="M18.3,23c-0.9,0-1.6,0.7-1.6,1.6c0,0.9,0.7,1.6,1.6,1.6c0.9,0,1.6-0.7,1.6-1.6C19.9,23.7,19.2,23,18.3,23
			L18.3,23z"/>
		<g>
			<path class="st1" d="M28.2,6.5c-1.7,0-3,1.3-3,3c0,1.7,1.3,3,3,3c1.7,0,3-1.3,3-3C31.2,7.9,29.9,6.5,28.2,6.5L28.2,6.5z"/>
			<path class="st1" d="M32.8,21.7l-6.1,1l-0.9-2.6l3.3-1.8l-0.6-0.8l0.8-0.6l1.4,1.8l-3.5,2l0.4,1.2l5.4-1.1l0,0l0.7-0.3
				c0.4-0.1,0.6-0.5,0.7-0.9c0-0.2-0.1-0.5-0.2-0.7l-3.6-5.3c-0.2-0.3-0.5-0.5-0.9-0.5c-0.1,0-0.3,0-0.4,0.1c0,0,0,0,0,0l-1.6,0.7
				c-0.1,0-0.2,0.1-0.3,0.2c-0.9,0.6-1.4,1.6-1.4,2.7v0.7v0c0,0-0.1,0-0.1,0.1c-1.5,0.3-2.9,2.5-2.9,3.8c0,1.5,1.4,2.7,2.4,3.3
				l-2,3.8h4.4V35h3v-6.6H35L32.8,21.7z"/>
		</g>
		<path class="st1" d="M21.8,26.3c-0.4-0.4-1-0.3-1.4,0L19,27.7h-1.4l-1.3-1.4c-0.2-0.2-0.4-0.3-0.7-0.3c-0.3,0-0.5,0.1-0.7,0.3
			c-0.4,0.4-0.4,1,0,1.4l1.6,1.7v1v0.6v1.2c0,0,0,0,0,0v2c0,0.5,0.4,0.9,0.9,0.9h0.4v-3h1v3h0.4c0.5,0,0.9-0.4,0.9-0.9v-4.8l1.6-1.7
			C22.2,27.2,22.1,26.6,21.8,26.3z"/>
		<path class="st1" d="M13,11.7H8c-1.7,0-3,1.3-3,3v7.6c0,0.4,0.3,0.8,0.8,0.8h0c0.4,0,0.8-0.3,0.8-0.8v-7.2h1v8h0V35h2V24h2v11h2
			V23.1v-8h1v7.3c0,0.4,0.3,0.8,0.7,0.8h0c0.4,0,0.7-0.3,0.7-0.8v-7.6C16,13.1,14.7,11.7,13,11.7z"/>
	</g>
</g>
</svg>
