<?xml version="1.0" encoding="utf-8"?>
<!-- Generator: Adobe Illustrator 23.0.2, SVG Export Plug-In . SVG Version: 6.00 Build 0)  -->
<svg version="1.1" id="Layer_1" xmlns="http://www.w3.org/2000/svg"
  xmlns:xlink="http://www.w3.org/1999/xlink" x="0px" y="0px"
  viewBox="0 0 40 40" style="enable-background:new 0 0 40 40;" xml:space="preserve">
<style type="text/css">
	.st0{fill:#000000;}
</style>
<g id="guides">
</g>
<g id="Layer_2">
</g>
<g>
	<g>
	</g>
	<g>
		<g>
			<g>
				<path class="st0" d="M28,13h-7c-0.3,0-0.5-0.2-0.5-0.5v0c0-0.3,0.2-0.5,0.5-0.5h7c0.3,0,0.5,0.2,0.5,0.5v0
					C28.5,12.8,28.3,13,28,13z"/>
				<circle class="st0" cx="18" cy="12.5" r="0.5"/>
			</g>
			<g>
				<path class="st0" d="M28,17h-7c-0.3,0-0.5-0.2-0.5-0.5l0,0c0-0.3,0.2-0.5,0.5-0.5h7c0.3,0,0.5,0.2,0.5,0.5l0,0
					C28.5,16.8,28.3,17,28,17z"/>
				<circle class="st0" cx="18" cy="16.5" r="0.5"/>
			</g>
		</g>
		<path class="st0" d="M29,7H17c-2.2,0-4,1.8-4,4v5h-2.4c-2,0-3.6,1.6-3.6,3.6v6.3c0,2,1.6,3.6,3.6,3.6v2.7c0,0.5,0.4,0.9,0.9,0.9
			c0.2,0,0.4-0.1,0.6-0.2l3.9-3.4h3.4c2,0,3.6-1.6,3.6-3.6V22l4.4,3.7c0.2,0.2,0.4,0.2,0.6,0.2c0.5,0,1-0.4,1-1v-3c2.2,0,4-1.8,4-4
			v-7C33,8.8,31.2,7,29,7z M21.5,25.8c0,1.1-0.9,2.1-2.1,2.1H16h-0.6l-0.4,0.4l-3,2.5v-1.4v-1.5h-1.5c-1.2,0-2.1-0.9-2.1-2.1v-6.3
			c0-1.1,0.9-2.1,2.1-2.1H13V18c0,2.2,1.8,4,4,4h4.5V25.8z M31.5,18c0,1.4-1.1,2.5-2.5,2.5h-1.5V22v1.9l-3.6-3l-0.4-0.4H23h-6
			c-1.4,0-2.5-1.1-2.5-2.5v-7c0-1.4,1.1-2.5,2.5-2.5h12c1.4,0,2.5,1.1,2.5,2.5V18z"/>
	</g>
</g>
</svg>