<?xml version="1.0" encoding="utf-8"?>
<!-- Generator: Adobe Illustrator 23.0.2, SVG Export Plug-In . SVG Version: 6.00 Build 0)  -->
<svg version="1.1" id="Layer_1" xmlns="http://www.w3.org/2000/svg" xmlns:xlink="http://www.w3.org/1999/xlink" x="0px" y="0px"
	 viewBox="0 0 40 40" style="enable-background:new 0 0 40 40;" xml:space="preserve">
<style type="text/css">
	.st0{fill:#000000;}
</style>
<g id="guides">
</g>
<g id="Layer_2">
</g>
<g>
	<g>
	</g>
	<g>
		<g>
			<g>
				<path class="st0" d="M13,19.8c4,0,7.3,3.3,7.3,7.3S17,34.3,13,34.3S5.8,31,5.8,27S9,19.8,13,19.8 M13,19c-4.4,0-8,3.6-8,8
					s3.6,8,8,8s8-3.6,8-8S17.4,19,13,19L13,19z"/>
			</g>
			<path class="st0" d="M13.7,23.8v-1.4l1.5-0.8c0.8,0.4,1.6,0.9,2.2,1.6l-0.4,1.7L16,25.5L13.7,23.8z"/>
			<path class="st0" d="M8.9,24.9l-0.4-1.7c0.6-0.7,1.3-1.2,2.2-1.6l1.5,0.8v1.4L10,25.5L8.9,24.9z"/>
			<path class="st0" d="M8.1,30.2c-0.5-0.7-0.8-1.6-0.9-2.5l1.2-1.3l1,0.5l0.9,2.6l-0.7,0.8L8.1,30.2z"/>
			<path class="st0" d="M13,32.8c-0.6,0-1.1-0.1-1.6-0.2l-0.5-1.4l0.7-0.8h2.8l0.6,0.8l-0.7,1.5C13.9,32.8,13.4,32.8,13,32.8z"/>
			<path class="st0" d="M15.6,29.5l0.9-2.6l1-0.5l1.2,1.3c-0.1,0.8-0.3,1.5-0.7,2.1l-1.9,0.4L15.6,29.5z"/>
		</g>
		<g>
			<path class="st0" d="M22.4,7.8c-0.6,0.8-1,1.7-1.2,2.7c1-0.1,2-0.5,2.9-1.1L22.4,7.8z"/>
			<path class="st0" d="M25.5,8c0.6-0.8,1-1.8,1.1-2.9c-1,0.2-1.9,0.6-2.7,1.2L25.5,8z"/>
			<path class="st0" d="M32,14.5l1.6,1.6c0.6-0.8,1-1.7,1.2-2.7C33.8,13.5,32.8,13.9,32,14.5z"/>
			<path class="st0" d="M30.6,15.9c-0.6,0.8-1,1.8-1.1,2.9c1-0.2,1.9-0.6,2.7-1.2L30.6,15.9z"/>
			<path class="st0" d="M26.9,9.4l1.1,1.1l4.2-4.2c-1.1-0.8-2.3-1.3-3.6-1.4c0,0,0,0,0,0C28.5,6.7,27.9,8.2,26.9,9.4z"/>
			<path class="st0" d="M26.6,12l-1.1-1.1c-1.3,1-2.8,1.6-4.4,1.7c0,0,0,0-0.1,0c0.1,1.3,0.6,2.6,1.4,3.7L26.6,12z"/>
			<path class="st0" d="M27.5,18.9c0.1-1.6,0.7-3.1,1.7-4.4L28,13.4l-4.2,4.2c0.5,0.4,1,0.6,1.5,0.9C26,18.7,26.7,18.9,27.5,18.9
				C27.5,18.9,27.5,18.9,27.5,18.9z"/>
			<path class="st0" d="M34.9,11.4C35,11.4,35,11.4,34.9,11.4c-0.1-1.3-0.5-2.6-1.3-3.6L29.4,12l1.1,1.1
				C31.8,12.1,33.3,11.5,34.9,11.4z"/>
		</g>
		<g>
			<path class="st0" d="M24.4,32l-0.2-0.4c-0.3,1.7-0.2,3,0,3.2c0.2,0.2,1.6,0.3,3.2,0c-0.1-0.1-0.2-0.1-0.4-0.2
				C26.1,34.1,24.9,32.9,24.4,32z"/>
			<path class="st0" d="M34.8,24.2c-0.2-0.2-1.6-0.3-3.2,0c0.1,0.1,0.2,0.1,0.4,0.2c0.9,0.5,2.1,1.7,2.7,2.7l0.2,0.4
				C35.1,25.7,35,24.4,34.8,24.2z"/>
			<path class="st0" d="M29.2,24.8c-1,0.4-2,0.9-2.7,1.7c-0.8,0.8-1.3,1.8-1.7,2.9c1.9,2.7,3.8,4.1,5,4.9c1-0.4,2-0.9,2.8-1.7
				c0.8-0.8,1.3-1.8,1.7-2.8C32.4,27,30.5,25.6,29.2,24.8z M31,29.1l-2,2c-0.3,0.3-0.8,0.3-1.1,0c-0.3-0.3-0.3-0.8,0-1.1l2-2
				c0.3-0.3,0.8-0.3,1.1,0C31.3,28.3,31.3,28.8,31,29.1z"/>
		</g>
	</g>
</g>
</svg>
