<?xml version="1.0" encoding="utf-8"?>
<!-- Generator: Adobe Illustrator 23.0.2, SVG Export Plug-In . SVG Version: 6.00 Build 0)  -->
<svg version="1.1" id="Layer_1" xmlns="http://www.w3.org/2000/svg" xmlns:xlink="http://www.w3.org/1999/xlink" x="0px" y="0px"
	 viewBox="0 0 40 40" style="enable-background:new 0 0 40 40;" xml:space="preserve">
<style type="text/css">
	.st0{fill:#000000;}
</style>
<g id="guides">
</g>
<g id="Layer_2">
</g>
<g>
	<g>
	</g>
	<path class="st0" d="M12.5,34.1C10,34.1,8,32,8,29.5c0-2.5,2-4.6,4.5-4.6c0.8,0,1.6,0.2,2.3,0.7l0.7,0.5V10.9L32,6.1v19.3l0,0.2
		c-0.2,2.4-2.1,4.2-4.5,4.2c-2.5,0-4.5-2.1-4.5-4.6c0-2.5,2-4.6,4.5-4.6c0.8,0,1.6,0.2,2.3,0.7l0.7,0.5V11.5l-13.6,4v14
		C17,32,15,34.1,12.5,34.1z"/>
</g>
</svg>
