<?xml version="1.0" encoding="utf-8"?>
<!-- Generator: Adobe Illustrator 23.0.2, SVG Export Plug-In . SVG Version: 6.00 Build 0)  -->
<svg version="1.1" id="Layer_1" xmlns="http://www.w3.org/2000/svg" xmlns:xlink="http://www.w3.org/1999/xlink" x="0px" y="0px"
	 viewBox="0 0 40 40" style="enable-background:new 0 0 40 40;" xml:space="preserve">
<style type="text/css">
	.st0{fill:none;}
	.st1{fill:#000000;}
	.st2{fill:none;stroke:#000000;stroke-width:0.75;stroke-miterlimit:10;}
</style>
<g id="guides">
</g>
<g id="Layer_2">
</g>
<g>
	<g>
		<rect class="st0" width="40" height="40"/>
	</g>
	<g>
		<g>
			<g>
				<g>
					
						<rect x="4.3" y="11.1" transform="matrix(0.7071 -0.7071 0.7071 0.7071 -5.9539 8.7172)" class="st1" width="6.4" height="0.8"/>
				</g>
				<g>
					
						<rect x="6" y="12.8" transform="matrix(0.7071 -0.7071 0.7071 0.7071 -6.6569 10.4142)" class="st1" width="6.4" height="0.8"/>
				</g>
				<g>
					
						<rect x="7.7" y="14.5" transform="matrix(0.7071 -0.7071 0.7071 0.7071 -7.3598 12.1113)" class="st1" width="6.4" height="0.8"/>
				</g>
			</g>
			<g>
				<g>
					
						<rect x="30.4" y="10" transform="matrix(0.7071 -0.7071 0.7071 0.7071 -0.3553 25.6274)" class="st1" width="0.8" height="6.4"/>
				</g>
				<g>
					
						<rect x="27.2" y="12.3" transform="matrix(0.7071 -0.7071 0.7071 0.7071 -1.4666 23.5103)" class="st1" width="0.8" height="2.4"/>
				</g>
				<g>
					
						<rect x="30.1" y="15.2" transform="matrix(0.7071 -0.7071 0.7071 0.7071 -2.6382 26.3387)" class="st1" width="0.8" height="2.4"/>
				</g>
				<g>
					
						<rect x="30.6" y="8.9" transform="matrix(0.7071 -0.7071 0.7071 0.7071 1.9275 24.9161)" class="st1" width="0.8" height="2.4"/>
				</g>
				<g>
					
						<rect x="33.5" y="11.8" transform="matrix(0.7071 -0.7071 0.7071 0.7071 0.7559 27.7446)" class="st1" width="0.8" height="2.4"/>
				</g>
			</g>
			<g>
				<g>
					
						<rect x="10.5" y="21.9" transform="matrix(0.7071 -0.7071 0.7071 0.7071 -14.5161 15.0755)" class="st1" width="0.8" height="6.4"/>
				</g>
				<g>
					
						<rect x="7.1" y="25.3" transform="matrix(0.7071 -0.7071 0.7071 0.7071 -17.9103 13.6696)" class="st1" width="0.8" height="6.4"/>
				</g>
				<g>
					
						<rect x="7.4" y="24.1" transform="matrix(0.7071 -0.7071 0.7071 0.7071 -15.6274 12.9584)" class="st1" width="0.8" height="2.4"/>
				</g>
				<g>
					
						<rect x="10.3" y="27" transform="matrix(0.7071 -0.7071 0.7071 0.7071 -16.799 15.7868)" class="st1" width="0.8" height="2.4"/>
				</g>
			</g>
			<g>
				<g>
					
						<rect x="29.8" y="29.5" transform="matrix(0.7071 -0.7071 0.7071 0.7071 -12.0288 30.6971)" class="st1" width="2.4" height="0.8"/>
				</g>
				<g>
					
						<rect x="32.7" y="26.6" transform="matrix(0.7071 -0.7071 0.7071 0.7071 -9.2004 31.8686)" class="st1" width="2.4" height="0.8"/>
				</g>
				<g>
					<rect x="28.1" y="27.8" transform="matrix(0.7071 -0.7071 0.7071 0.7071 -11.3259 29)" class="st1" width="2.4" height="0.8"/>
				</g>
				<g>
					
						<rect x="31" y="24.9" transform="matrix(0.7071 -0.7071 0.7071 0.7071 -8.4975 30.1716)" class="st1" width="2.4" height="0.8"/>
				</g>
				<g>
					
						<rect x="26.4" y="26.1" transform="matrix(0.7071 -0.7071 0.7071 0.7071 -10.623 27.3029)" class="st1" width="2.4" height="0.8"/>
				</g>
				<g>
					
						<rect x="29.3" y="23.2" transform="matrix(0.7071 -0.7071 0.7071 0.7071 -7.7945 28.4745)" class="st1" width="2.4" height="0.8"/>
				</g>
			</g>
		</g>
		<g>
			<path class="st2" d="M23.9,19.2c-1.3-0.9-3.1-0.5-3.9,0.8c-0.9,1.3-2.6,1.7-3.9,0.8c-1.1-0.7-1.5-2.1-1.1-3.3
				c-0.4,0.8-0.6,1.6-0.6,2.5c0,3.1,2.5,5.6,5.6,5.6c2.2,0,4.1-1.3,5-3.1C25.5,21.3,25,19.9,23.9,19.2z"/>
			<path class="st2" d="M16.1,20.8c1.3,0.9,3.1,0.5,3.9-0.8c0.9-1.3,2.6-1.7,3.9-0.8c1.1,0.7,1.5,2.1,1.1,3.3
				c0.4-0.8,0.6-1.6,0.6-2.5c0-3.1-2.5-5.6-5.6-5.6c-2.2,0-4.1,1.3-5,3.1C14.6,18.7,15,20.1,16.1,20.8z"/>
		</g>
	</g>
</g>
</svg>
