<?xml version="1.0" encoding="utf-8"?>
<!-- Generator: Adobe Illustrator 23.0.2, SVG Export Plug-In . SVG Version: 6.00 Build 0)  -->
<svg version="1.1" id="Layer_1" xmlns="http://www.w3.org/2000/svg" xmlns:xlink="http://www.w3.org/1999/xlink" x="0px" y="0px"
	 viewBox="0 0 40 40" style="enable-background:new 0 0 40 40;" xml:space="preserve">
<style type="text/css">
	.st0{fill:#000000;}
</style>
<g id="guides">
</g>
<g id="Layer_2">
</g>
<g>
	<g>
	</g>
	<g>
		<g>
			<path class="st0" d="M32,20c0,0-0.6,2.9,1,3.7v2C21.9,16,20,5,20,5S18.1,16,7,25.7v-2C8.6,22.9,8,20,8,20c0,2.6-3,3-3,3v6
				c0,0,12.6-8.7,15-18c2.4,9.3,15,18,15,18v-6C35,23,32,22.6,32,20z"/>
		</g>
		<polygon class="st0" points="20,28 10,28 15,22.5 20,17 25,22.5 30,28 		"/>
		<rect x="13" y="28" class="st0" width="3" height="7"/>
		<rect x="24" y="28" class="st0" width="3" height="7"/>
	</g>
</g>
</svg>
