<?xml version="1.0" encoding="utf-8"?>
<!-- Generator: Adobe Illustrator 23.0.2, SVG Export Plug-In . SVG Version: 6.00 Build 0)  -->
<svg version="1.1" id="Layer_1" xmlns="http://www.w3.org/2000/svg" xmlns:xlink="http://www.w3.org/1999/xlink" x="0px" y="0px"
	 viewBox="0 0 40 40" style="enable-background:new 0 0 40 40;" xml:space="preserve">
<style type="text/css">
	.st0{fill:none;}
	.st1{fill:#000000;}
	.st2{fill:none;stroke:#000000;stroke-linecap:round;stroke-linejoin:round;stroke-miterlimit:10;}
</style>
<g id="guides">
</g>
<g id="Layer_2">
</g>
<g>
	<g>
		<rect class="st0" width="40" height="40"/>
	</g>
	<g>
		<path class="st1" d="M33,7H7C5.9,7,5,7.9,5,9v22c0,1.1,0.9,2,2,2h26c1.1,0,2-0.9,2-2V9C35,7.9,34.1,7,33,7z M33.5,31
			c0,0.3-0.2,0.5-0.5,0.5H7c-0.3,0-0.5-0.2-0.5-0.5V9c0-0.3,0.2-0.5,0.5-0.5h26c0.3,0,0.5,0.2,0.5,0.5V31z"/>
		<polyline class="st2" points="9,26.5 16,19.5 23.1,26.5 		"/>
		<polyline class="st2" points="19.5,23 26.4,16.1 31,20.7 		"/>
		<circle class="st1" cx="20" cy="14.4" r="2"/>
	</g>
</g>
</svg>
