<?xml version="1.0" encoding="utf-8"?>
<!-- Generator: Adobe Illustrator 23.0.2, SVG Export Plug-In . SVG Version: 6.00 Build 0)  -->
<svg version="1.1" id="Layer_1" xmlns="http://www.w3.org/2000/svg"
  xmlns:xlink="http://www.w3.org/1999/xlink" x="0px" y="0px"
  viewBox="0 0 40 40" style="enable-background:new 0 0 40 40;" xml:space="preserve">
<style type="text/css">
	.st0{fill:#000000;}
</style>
<g id="guides">
</g>
<g id="Layer_2">
</g>
<g>
	<g>
	</g>
	<g>
		<path class="st0" d="M30.3,12V8c-5,0-8.4,2.5-10,4H20h-0.2c-1.6-1.5-5.1-4-10-4v4H5v18.7c0,0.7,0.6,1.1,1.3,0.9
			c1.5-0.4,4.2-1.1,6.2-1.1c3.1,0,7.5,1.5,7.5,1.5s4.4-1.5,7.5-1.5c2.1,0,4.7,0.7,6.2,1.1c0.6,0.2,1.3-0.3,1.3-0.9V12H30.3z
			 M28.8,9.6V12v1.5v11.1c-3.5,0.4-6.2,2.1-8,3.6V13.6c0,0,0.1-0.1,0.1-0.1c0.1-0.1,0.3-0.3,0.5-0.5c0.1-0.1,0.2-0.2,0.3-0.3
			c0.1-0.1,0.2-0.1,0.3-0.2c0.1-0.1,0.3-0.2,0.4-0.3c0.1-0.1,0.2-0.1,0.3-0.2l0,0C24.1,11,26.1,9.9,28.8,9.6z M11.3,9.6
			c2.6,0.3,4.7,1.4,6.1,2.4l0,0c0.1,0.1,0.2,0.1,0.3,0.2c0.1,0.1,0.3,0.2,0.4,0.3c0.1,0.1,0.2,0.2,0.3,0.2c0.1,0.1,0.2,0.2,0.3,0.3
			c0.2,0.2,0.4,0.4,0.5,0.5h0c0,0,0.1,0.1,0.1,0.1v14.6c-1.8-1.6-4.5-3.2-8-3.6V13.5V12V9.6z M6.5,30V13.5h3.3V26
			c4.4,0,7.6,2.4,9.4,4.2c-1.6-0.5-4.4-1.2-6.7-1.2C10.5,29,8.2,29.5,6.5,30z M33.5,30c-1.7-0.4-4-1-6-1c-2.3,0-5.1,0.7-6.7,1.2
			c1.8-1.8,5-4.2,9.4-4.2V13.5h3.3V30z"/>
		<rect x="22.8" y="16" class="st0" width="4" height="0.5"/>
		<rect x="22.8" y="18.5" class="st0" width="2" height="0.5"/>
	</g>
</g>
</svg>