<?xml version="1.0" encoding="utf-8"?>
<!-- Generator: Adobe Illustrator 23.0.2, SVG Export Plug-In . SVG Version: 6.00 Build 0)  -->
<svg version="1.1" id="Layer_1" xmlns="http://www.w3.org/2000/svg" xmlns:xlink="http://www.w3.org/1999/xlink" x="0px" y="0px"
	 viewBox="0 0 40 40" style="enable-background:new 0 0 40 40;" xml:space="preserve">
<style type="text/css">
	.st0{fill:none;}
	.st1{fill:#000000;}
</style>
<g id="guides">
</g>
<g id="Layer_2">
</g>
<g>
	<g>
		<rect class="st0" width="40" height="40"/>
	</g>
	<g>
		<path class="st1" d="M26.2,17c1.1,1.7,1.8,3.8,1.8,6c0,0.2,0,0.3,0,0.5c-0.8-0.9-2.2-1.8-3.7-1.1c-0.6,0.3-1,0.9-1.3,1.5
			c-0.3,0.5-0.6,1-1,1.1c-0.3,0.1-0.8-0.2-1.4-0.6c-0.8-0.6-1.8-0.8-2.7-0.5c-1,0.3-1.8,1-2,1.8c-0.4,1.2,0.3,2.3,1,3.3
			c0.6,0.9,1.2,1.7,1,2.6c-0.2,0.8-1,1.6-2.4,2.4l0,0c-2.4-0.4-4.6-1.5-6.2-3.2c3.9-2.2,2.5-5,1.6-6.7c-0.2-0.4-0.4-0.8-0.5-1
			c-0.1-0.6,0.3-1.2,0.8-1.8c0.5-0.7,1.1-1.5,0.9-2.4c-0.4-1.5-2.8-2.4-3.4-2.6c2-2.5,5.1-4.1,8.5-4.1c2.2,0,4.3,0.7,6,1.8l0.7-0.7
			c-1.9-1.3-4.2-2-6.7-2c-6.6,0-12,5.4-12,12c0,6.6,5.4,12,12,12c6.6,0,12-5.4,12-12c0-2.5-0.8-4.8-2-6.7L26.2,17z M8.6,30.1
			C7,28.2,6,25.7,6,23c0-2.3,0.7-4.5,2-6.3l0.1,0c0.8,0.2,2.8,1,3,2.1c0.1,0.6-0.3,1.2-0.8,1.8c-0.5,0.7-1.1,1.5-0.9,2.4
			c0.1,0.4,0.3,0.8,0.5,1.2C10.9,26,12.1,28.2,8.6,30.1L8.6,30.1z M17,34c-0.2,0-0.3,0-0.5,0c1.1-0.8,1.8-1.5,2-2.4
			c0.3-1.2-0.4-2.2-1.1-3.2c-0.6-0.9-1.2-1.8-0.9-2.6c0.2-0.6,0.8-1.1,1.5-1.3c0.5-0.2,1.3-0.2,2,0.4c0.8,0.6,1.5,0.9,2,0.8
			c0.7-0.1,1.1-0.8,1.5-1.4c0.3-0.5,0.6-1,1-1.2c1.8-0.8,3.1,1.2,3.3,1.5C27.1,29.9,22.5,34,17,34z"/>
		<path class="st1" d="M34.7,6.8l-3.8,3.6l2.7,8.3l-1,1l-4.2-6.9L24.1,17l0.4,2.2L23.7,20l-1-2.7l-2.7-1l0.8-0.8l2.2,0.4l4.1-4.3
			l-6.9-4.2l1-1l8.3,2.7l3.6-3.8C33.4,5.1,33.6,5,33.9,5c0,0,0,0,0,0c0.3,0,0.6,0.1,0.8,0.3C34.9,5.5,35,5.8,35,6.1
			C35,6.4,34.9,6.6,34.7,6.8z"/>
	</g>
</g>
</svg>
