<?xml version="1.0" encoding="utf-8"?>
<!-- Generator: Adobe Illustrator 23.0.2, SVG Export Plug-In . SVG Version: 6.00 Build 0)  -->
<svg version="1.1" id="Layer_1" xmlns="http://www.w3.org/2000/svg" xmlns:xlink="http://www.w3.org/1999/xlink" x="0px" y="0px"
	 viewBox="0 0 40 40" style="enable-background:new 0 0 40 40;" xml:space="preserve">
<style type="text/css">
	.st0{fill:#000000;}
</style>
<g id="guides">
</g>
<g id="Layer_2">
</g>
<g>
	<g>
	</g>
	<g>
		<g>
			<path class="st0" d="M20,7c-2.8,0-5,2.6-4.4,5.5c0.4,1.7,1.7,3.1,3.4,3.4c2.9,0.6,5.5-1.6,5.5-4.4C24.5,9,22.5,7,20,7L20,7z"/>
		</g>
		<path class="st0" d="M26,19h-4.1l-1.1,2.1l1.6,8.1L20,32l-2.3-2.8l1.6-8.1L18.1,19H14c-2.8,0-5,2.2-5,5v9h3v-7h2v7h12v-7h2v7h3v-9
			C31,21.2,28.8,19,26,19z"/>
	</g>
</g>
</svg>
