<?xml version="1.0" encoding="utf-8"?>
<!-- Generator: Adobe Illustrator 23.0.2, SVG Export Plug-In . SVG Version: 6.00 Build 0)  -->
<svg version="1.1" id="Layer_1" xmlns="http://www.w3.org/2000/svg" xmlns:xlink="http://www.w3.org/1999/xlink" x="0px" y="0px"
	 viewBox="0 0 40 40" style="enable-background:new 0 0 40 40;" xml:space="preserve">
<style type="text/css">
	.st0{fill:none;}
	.st1{fill:#000000;}
</style>
<g id="guides">
</g>
<g id="Layer_2">
</g>
<g>
	<g>
		<rect class="st0" width="40" height="40"/>
	</g>
	<g>
		<g>
			<path class="st1" d="M32.2,23.9v10.6c0,0.3-0.2,0.5-0.5,0.5c-0.3,0-0.5-0.2-0.5-0.5V23.9c0-0.4-0.4-0.8-0.8-0.8
				c-0.4,0-0.8,0.4-0.8,0.8c0,0.3-0.2,0.5-0.5,0.5c-0.3,0-0.5-0.2-0.5-0.5c0-0.7,0.4-1.4,1.1-1.7c-1.3-1.9-2-4-2.4-5.8L24.9,23
				c0,0,0,0,0,0c0.1,0.3,1.5,5.3-0.2,11C24.6,34.6,24,35,23.5,35c-0.1,0-0.3,0-0.4-0.1c-0.7-0.2-1.1-0.9-0.9-1.6
				c1.3-4.5,0.4-8.7,0.2-9.4c-1.4-2.8-1.7-5.4-0.8-7.7c1.4-3.7,5.3-5.1,5.5-5.2c0.7-0.3,1.4,0.1,1.7,0.8c0.1,0.2,0.1,0.8,0.1,0.9
				c0,0,0,5,2.7,8.7c0.2,0.3,0.2,0.8,0,1.1C31.9,22.9,32.2,23.3,32.2,23.9z"/>
			<g>
				<path class="st1" d="M35,10.9l-0.9-1.7L29.9,6l-1.8-0.4c0,0.1,0,0.2,0.1,0.2l6.5,5C34.8,11,35,11,35,10.9z"/>
				<g>
					<polygon class="st1" points="33.2,10.1 33.2,10.1 33.2,10.1 					"/>
					<path class="st1" d="M28.9,7.9c-0.3,0.9,0.1,2,0.9,2.6c0.8,0.6,1.9,0.7,2.8,0.2L28.9,7.9z"/>
				</g>
				<path class="st1" d="M34.7,8.1c0.2-0.9-0.1-1.9-1-2.6c-0.8-0.6-1.9-0.7-2.7-0.3L34.7,8.1z"/>
			</g>
		</g>
		<g>
			<path class="st1" d="M17.2,22.7c-2.4-3.3-2.4-7.8-2.4-7.9c0,0,0-0.6-0.1-0.8c-0.2-0.6-0.9-0.9-1.5-0.7c-0.1,0-2.1,0.8-3.7,2.6
				l0,0c0,0-4.5,5.1-4.5,12.9h4.5c0,1.3-0.2,2.9-0.6,4.5C8.7,34.1,9,34.8,9.6,35c0.1,0,0.2,0,0.3,0c0.5,0,1-0.3,1.1-0.8
				c0.6-1.9,0.7-3.7,0.7-5.2h2.6c0,0-3-4.1-1.1-10.7c0.3,1.6,1.1,3.8,2.2,5.2c0.9,1.2,1.7,0.3,1.7,0.3
				C17.5,23.5,17.5,23.1,17.2,22.7z"/>
			<path class="st1" d="M17.2,7.8c-0.6,0-1.2,0.2-1.6,0.5c0-0.7-0.6-1.3-1.4-1.3c-0.8,0-1.4,0.6-1.4,1.4c0,0.8,0.6,1.4,1.4,1.4
				c0.1,0,0.2,0,0.4-0.1c-0.1,0.3-0.2,0.6-0.2,0.9c0,1.5,1.3,2.8,2.8,2.8c1.5,0,2.8-1.3,2.8-2.8S18.7,7.8,17.2,7.8z"/>
		</g>
	</g>
</g>
</svg>
