<?xml version="1.0" encoding="utf-8"?>
<!-- Generator: Adobe Illustrator 23.0.2, SVG Export Plug-In . SVG Version: 6.00 Build 0)  -->
<svg version="1.1" id="Layer_1" xmlns="http://www.w3.org/2000/svg" xmlns:xlink="http://www.w3.org/1999/xlink" x="0px" y="0px"
	 viewBox="0 0 40 40" style="enable-background:new 0 0 40 40;" xml:space="preserve">
<style type="text/css">
	.st0{fill:#000000;}
</style>
<g id="guides">
</g>
<g id="Layer_2">
</g>
<g>
	<g>
	</g>
	<g>
		<path class="st0" d="M29.9,10.2C28.6,8.8,26.8,8,24.9,8c-2,0-3.8,0.8-5.2,2.3L19,11l-0.7-0.7C16.9,8.8,15.1,8,13.1,8
			c-1.9,0-3.7,0.8-5.1,2.2C5.3,13.1,5.3,18,8.2,21l10.2,10.7c0.2,0.2,0.4,0.3,0.7,0.3c0.2,0,0.5-0.1,0.7-0.3l3.8-4v-1.2H19v-9h4.5
			V13h8.1C31.2,12,30.7,11,29.9,10.2z M14,13c-1.7,0-3.1,1.4-3.1,3.2c0,0.7-0.6,1.3-1.3,1.3c-0.7,0-1.3-0.6-1.3-1.3
			c0-3.2,2.5-5.8,5.7-5.8c0.7,0,1.3,0.6,1.3,1.3C15.3,12.4,14.7,13,14,13z"/>
		<polygon class="st0" points="34,20.5 29.5,20.5 29.5,16 26.5,16 26.5,20.5 22,20.5 22,23.5 26.5,23.5 26.5,28 29.5,28 29.5,23.5 
			34,23.5 		"/>
	</g>
</g>
</svg>
