<?xml version="1.0" encoding="utf-8"?>
<!-- Generator: Adobe Illustrator 23.0.2, SVG Export Plug-In . SVG Version: 6.00 Build 0)  -->
<svg version="1.1" id="Layer_1" xmlns="http://www.w3.org/2000/svg" xmlns:xlink="http://www.w3.org/1999/xlink" x="0px" y="0px"
	 viewBox="0 0 40 40" style="enable-background:new 0 0 40 40;" xml:space="preserve">
<style type="text/css">
	.st0{fill:#000000;}
</style>
<g id="guides">
</g>
<g id="Layer_2">
</g>
<g>
	<g>
	</g>
	<g>
		<polygon class="st0" points="9.7,9.7 10.5,7 11.3,9.7 14,10.5 11.3,11.3 10.5,14 9.7,11.3 7,10.5 		"/>
		<g>
			<g>
				<polygon class="st0" points="29.4,8.4 25.9,7.4 27.2,5.5 28.2,5.8 28.2,5.8 28.2,5.8 29.3,6.1 				"/>
				<polygon class="st0" points="30.2,6.3 31.2,6.6 32.7,9.3 32.7,9.3 30.4,8.6 				"/>
				<polygon class="st0" points="25.2,5 26.2,5.3 24.9,7.2 22.6,6.6 22.6,6.6 				"/>
			</g>
			<g>
				<polygon class="st0" points="25.8,8.4 29.1,9.3 26.5,12.1 				"/>
				<polygon class="st0" points="24.7,8.1 25.5,11.7 23.3,7.7 				"/>
				<polygon class="st0" points="30.1,9.5 31.6,9.9 27.7,12.3 				"/>
			</g>
		</g>
		<path class="st0" d="M34.3,17c-0.7-1.4-2-2.3-3.5-2.7c-1.5-0.4-3.1-0.2-4.5,0.7l-0.7,0.4l-0.4-0.7c-0.8-1.4-2-2.4-3.6-2.8
			c-1.5-0.4-3-0.2-4.4,0.6c-1.3,0.8-2.2,2-2.6,3.4c0.4-0.2,0.8-0.3,1.2-0.5c0.2-0.1,0.5-0.1,0.7-0.1c0.4-0.6,0.9-1.2,1.5-1.5
			c0.3-0.2,0.7-0.4,1.1-0.5c0.7-0.2,1.4-0.2,2.1,0c1.1,0.3,2.1,1,2.6,2.1l1.1,2l2-1.2c0.4-0.2,0.7-0.4,1.1-0.5
			c0.7-0.2,1.5-0.2,2.2,0c1.1,0.3,2,1,2.5,2c1.2,2.1,0.4,4.9-1.7,6.2l-7.6,4.6l-1.5,2.6l9.9-5.9C34.8,23.5,35.8,19.9,34.3,17z"/>
		<path class="st0" d="M20.4,18.4c-1.2-0.7-2.5-0.9-3.8-0.5c-1.3,0.4-2.4,1.2-3.1,2.5l-0.3,0.6l-0.6-0.3c-1.2-0.7-2.6-0.9-3.9-0.6
			c-1.3,0.3-2.4,1.2-3,2.4c-1.4,2.5-0.5,5.7,2,7.2l8.8,5.3c0.2,0.1,0.3,0.1,0.5,0.1c0.2,0,0.3-0.2,0.4-0.3l5-9
			C23.7,23.1,22.9,19.9,20.4,18.4z M10,23.1c-0.1,0-0.3,0-0.4,0.1c-0.4,0.1-0.8,0.4-1,0.8c-0.4,0.7-0.3,1.6,0.2,2.2
			c0.2,0.3,0.2,0.7,0,1l-0.1,0.1c-0.3,0.3-0.8,0.3-1.1,0c-0.9-1.1-1.1-2.7-0.4-4c0.4-0.8,1.1-1.3,2-1.6c0.3-0.1,0.6-0.1,0.9-0.1
			c0.4,0,0.8,0.4,0.8,0.8S10.4,23.1,10,23.1z"/>
	</g>
</g>
</svg>
