<?xml version="1.0" encoding="utf-8"?>
<!-- Generator: Adobe Illustrator 23.0.2, SVG Export Plug-In . SVG Version: 6.00 Build 0)  -->
<svg version="1.1" id="Layer_1" xmlns="http://www.w3.org/2000/svg" xmlns:xlink="http://www.w3.org/1999/xlink" x="0px" y="0px"
	 viewBox="0 0 40 40" style="enable-background:new 0 0 40 40;" xml:space="preserve">
<style type="text/css">
	.st0{fill:#000000;}
</style>
<g id="guides">
</g>
<g id="Layer_2">
</g>
<g>
	<g>
	</g>
	<g>
		<rect x="6" y="33.5" class="st0" width="24" height="1.5"/>
		<path class="st0" d="M6,12.3l0.1,2.2c0.2,7.9,3,13,4.1,14.9c0.6,1,1.6,1.5,2.7,1.5h8.5c1.1,0,2.1-0.6,2.7-1.5
			c1.2-1.9,3.9-7.1,4.2-14.9l0.1-2.2H6z M26.8,14.5C26.6,22,24,26.9,22.9,28.7c-0.3,0.5-0.9,0.8-1.4,0.8h-8.5
			c-0.6,0-1.1-0.3-1.5-0.8c-1.1-1.8-3.7-6.7-3.9-14.2l0-0.7h19.3L26.8,14.5z"/>
		<g>
			<path class="st0" d="M30.6,12.3h-2.2l0,1.5h2.2c1.1,0,1.9,0.9,1.9,1.9c0,2-2.1,4.6-4,6.4l-1.7,1.6c-0.4,1.2-0.8,2.3-1.2,3.2
				l4-3.7c1.3-1.2,4.5-4.5,4.5-7.5C34,13.9,32.5,12.3,30.6,12.3z"/>
		</g>
		<path class="st0" d="M14,9L14,9l1.5-3.2c0.4-0.8,1.2-1.1,2-0.7v0L16,8.3C15.6,9.1,14.8,9.4,14,9z"/>
		<path class="st0" d="M20,9L20,9l1.5-3.2c0.4-0.8,1.2-1.1,2-0.7v0L22,8.3C21.6,9.1,20.8,9.4,20,9z"/>
	</g>
</g>
</svg>
