<?xml version="1.0" encoding="utf-8"?>
<!-- Generator: Adobe Illustrator 23.0.2, SVG Export Plug-In . SVG Version: 6.00 Build 0)  -->
<svg version="1.1" id="Layer_1" xmlns="http://www.w3.org/2000/svg" xmlns:xlink="http://www.w3.org/1999/xlink" x="0px" y="0px"
	 viewBox="0 0 40 40" style="enable-background:new 0 0 40 40;" xml:space="preserve">
<style type="text/css">
	.st0{fill:none;}
	.st1{fill:#000000;}
</style>
<g id="guides">
</g>
<g id="Layer_2">
</g>
<g>
	<g>
		<rect class="st0" width="40" height="40"/>
	</g>
	<g>
		<polygon class="st1" points="15.7,19.7 6.3,26.9 5,25.2 15.7,17 20.5,20.7 20.5,19 23.3,19 23.3,22.9 26.3,25.2 25,26.9 		"/>
		<rect x="28.5" y="8.8" class="st1" width="3" height="3"/>
		<rect x="22.5" y="8.8" class="st1" width="3" height="3"/>
		<rect x="28.5" y="14.8" class="st1" width="3" height="3"/>
		<polygon class="st1" points="15.7,22.5 8.7,27.8 8.7,35 13.3,35 13.3,29 18.3,29 18.3,35 22.6,35 22.6,27.8 		"/>
		<polygon class="st1" points="33.8,5 20.2,5 19,5 19,6.2 19,16 20.2,16 20.2,6.2 33.8,6.2 33.8,33.8 25,33.8 25,35 33.8,35 35,35 
			35,33.8 35,6.2 35,5 		"/>
	</g>
</g>
</svg>
